<?xml version="1.0" encoding="utf-8"?>
<!--Designed by Vexels.com - 2018 All Rights Reserved - https://vexels.com/terms-and-conditions/-->
<svg version="1.1" id="Layer_1" xmlns="http://www.w3.org/2000/svg" xmlns:xlink="http://www.w3.org/1999/xlink" x="0px" y="0px"
	 viewBox="0 0 1200 1200" enable-background="new 0 0 1200 1200" xml:space="preserve">
<g>
	<path fill="#E8E8E8" d="M920.969,577.86c-1.555-2.399-3.371-4.505-5.463-6.291v-92.054c0-6.186-2.727-12.059-7.453-16.05
		l-93.941-79.344c-3.792-3.202-8.594-4.959-13.557-4.959H86.342c-11.603,0-21.01,9.406-21.01,21.009v418.825
		c0,11.603,9.406,21.01,21.01,21.01h714.213c4.962,0,9.765-1.757,13.557-4.959l93.941-79.345c4.727-3.992,7.453-9.864,7.453-16.05
		V638.824c0.639-0.538,1.248-1.108,1.838-1.7c27.398,12.67,60.532,31.38,75.834,53.096c9.867,14.001,15.135,32.262,20.232,49.924
		c10.017,34.712,20.375,70.608,65.102,80.419c25.475,5.59,47.518-3.094,60.474-23.823c18.432-29.492,16.762-84.866-28.527-142.091
		C1057.146,587.29,971.609,576.204,920.969,577.86z M919.735,605.83c0,8.447-1.425,15.277-4.229,20.463v-40.087
		c0.294-0.014,0.592-0.027,0.889-0.041C918.608,591.315,919.735,597.874,919.735,605.83z M813.205,645.524
		c-19.849,0-35.941-16.091-35.941-35.94s16.092-35.941,35.941-35.941c8.706,0,16.687,3.098,22.907,8.248
		c-0.141,0.069-0.307,0.151-0.432,0.212c-1.423,0.683-2.253,2.103-2.253,3.582c0,0.577,0.127,1.164,0.393,1.72
		c0.952,1.976,3.325,2.809,5.303,1.857c0.634-0.303,1.451-0.711,2.433-1.203c0.096-0.048,0.186-0.089,0.282-0.137
		c4.567,6.027,7.309,13.514,7.309,21.66c0,5.902-1.45,11.457-3.971,16.37c-1.8-0.868-2.857-1.426-2.924-1.461
		c-1.933-1.035-4.342-0.308-5.378,1.627c-1.035,1.935-0.31,4.34,1.626,5.377c0.217,0.117,1.017,0.539,2.253,1.153
		C834.16,640.515,824.271,645.524,813.205,645.524z M1132.246,792.529c-11.069,17.71-30.035,25.098-52.034,20.274
		c-40.106-8.8-49.366-40.889-59.169-74.863c-5.278-18.29-10.736-37.206-21.372-52.298c-16.111-22.865-49.488-42.063-77.401-55.094
		c3.589-6.41,5.41-14.663,5.41-24.718c0-7.668-0.964-14.307-2.863-19.91c49.173-0.676,129.921,11.132,179.409,73.659
		C1147.113,713.771,1149.203,765.401,1132.246,792.529z"/>
	<g>
		<path fill="#7C7B7B" d="M856.325,596.835c0,1.668,1.059,3.22,2.729,3.774c0.901,0.297,90.446,30.219,118.79,70.445
			c9.867,14.001,15.135,32.263,20.232,49.924c10.016,34.712,20.374,70.608,65.102,80.419c25.475,5.589,47.518-3.094,60.474-23.822
			c18.432-29.492,16.762-84.866-28.527-142.091c-69.787-88.177-194.803-79.925-224.462-72.89c-2.133,0.51-3.463,2.638-2.949,4.785
			c0.507,2.134,2.647,3.453,4.783,2.949c26.882-6.379,149.883-13.952,216.397,70.086c42.887,54.191,44.977,105.822,28.02,132.95
			c-11.069,17.71-30.035,25.097-52.034,20.274c-40.106-8.8-49.366-40.889-59.169-74.863c-5.278-18.29-10.736-37.205-21.372-52.298
			c-29.856-42.371-119.014-72.166-122.794-73.415c-2.083-0.685-4.33,0.445-5.018,2.53
			C856.39,596.002,856.325,596.423,856.325,596.835z"/>
		<path fill="#61D8A6" d="M785.222,359.995H71.01c-11.603,0-21.01,9.406-21.01,21.01V799.83c0,11.603,9.406,21.009,21.01,21.009
			h714.213c4.963,0,9.765-1.757,13.557-4.959l93.941-79.345c4.726-3.992,7.453-9.864,7.453-16.051V460.349
			c0-6.186-2.727-12.059-7.453-16.05l-93.941-79.344C794.987,361.752,790.185,359.995,785.222,359.995z M797.872,554.477
			c19.849,0,35.941,16.091,35.941,35.941s-16.091,35.941-35.941,35.941c-19.849,0-35.941-16.091-35.941-35.941
			S778.023,554.477,797.872,554.477z"/>
		<path fill="#4DBA80" d="M76.486,421.18c1.463,0,2.649,1.185,2.649,2.649v31.833c0,1.464-1.186,2.649-2.649,2.649
			c-1.463,0-2.649-1.185-2.649-2.649v-31.833C73.838,422.365,75.024,421.18,76.486,421.18z M76.486,484.846
			c1.463,0,2.649,1.185,2.649,2.649v31.833c0,1.464-1.186,2.649-2.649,2.649c-1.463,0-2.649-1.185-2.649-2.649v-31.833
			C73.838,486.031,75.024,484.846,76.486,484.846z M76.486,548.512c1.463,0,2.649,1.185,2.649,2.649v31.833
			c0,1.464-1.186,2.649-2.649,2.649c-1.463,0-2.649-1.185-2.649-2.649v-31.833C73.838,549.697,75.024,548.512,76.486,548.512z
			 M76.486,612.178c1.463,0,2.649,1.185,2.649,2.648v31.833c0,1.464-1.186,2.649-2.649,2.649c-1.463,0-2.649-1.185-2.649-2.649
			v-31.833C73.838,613.363,75.024,612.178,76.486,612.178z M76.486,675.844c1.463,0,2.649,1.185,2.649,2.649v31.833
			c0,1.464-1.186,2.649-2.649,2.649c-1.463,0-2.649-1.185-2.649-2.649v-31.833C73.838,677.029,75.024,675.844,76.486,675.844z
			 M76.486,739.51c1.463,0,2.649,1.185,2.649,2.649v31.833c0,1.464-1.186,2.649-2.649,2.649c-1.463,0-2.649-1.185-2.649-2.649
			v-31.833C73.838,740.695,75.024,739.51,76.486,739.51z M79.68,391.515c4.36-4.881,10.611-7.682,17.154-7.682h14.692
			c1.463,0,2.649,1.185,2.649,2.649c0,1.464-1.186,2.649-2.649,2.649H96.834c-5.035,0-9.848,2.155-13.204,5.913
			c-0.974,1.092-2.649,1.185-3.739,0.212c-0.586-0.525-0.885-1.249-0.885-1.976C79.006,392.65,79.228,392.019,79.68,391.515z
			 M96.834,791.705h31.833c1.463,0,2.649,1.185,2.649,2.649c0,1.464-1.186,2.649-2.649,2.649H96.68
			c-1.463,0-2.572-1.185-2.572-2.649C94.108,792.89,95.371,791.705,96.834,791.705z M143.36,383.832h31.833
			c1.463,0,2.649,1.185,2.649,2.649c0,1.464-1.186,2.649-2.649,2.649H143.36c-1.463,0-2.649-1.185-2.649-2.649
			C140.711,385.017,141.897,383.832,143.36,383.832z M160.5,791.705h31.833c1.463,0,2.649,1.185,2.649,2.649
			c0,1.464-1.186,2.649-2.649,2.649H160.5c-1.463,0-2.648-1.185-2.648-2.649C157.851,792.89,159.037,791.705,160.5,791.705z
			 M207.026,383.832h31.833c1.463,0,2.649,1.185,2.649,2.649c0,1.464-1.186,2.649-2.649,2.649h-31.833
			c-1.463,0-2.649-1.185-2.649-2.649C204.377,385.017,205.563,383.832,207.026,383.832z M224.166,791.705H256
			c1.463,0,2.649,1.185,2.649,2.649c0,1.464-1.186,2.649-2.649,2.649h-31.834c-1.463,0-2.649-1.185-2.649-2.649
			C221.517,792.89,222.703,791.705,224.166,791.705z M270.692,383.832h31.833c1.463,0,2.649,1.185,2.649,2.649
			c0,1.464-1.186,2.649-2.649,2.649h-31.833c-1.463,0-2.649-1.185-2.649-2.649C268.044,385.017,269.23,383.832,270.692,383.832z
			 M287.833,791.705h31.833c1.463,0,2.649,1.185,2.649,2.649c0,1.464-1.186,2.649-2.649,2.649h-31.833
			c-1.463,0-2.649-1.185-2.649-2.649C285.185,792.89,286.371,791.705,287.833,791.705z M334.358,383.832h31.833
			c1.463,0,2.649,1.185,2.649,2.649c0,1.464-1.186,2.649-2.649,2.649h-31.833c-1.463,0-2.649-1.185-2.649-2.649
			C331.71,385.017,332.896,383.832,334.358,383.832z M351.5,791.705h31.833c1.463,0,2.649,1.185,2.649,2.649
			c0,1.464-1.186,2.649-2.649,2.649H351.5c-1.463,0-2.649-1.185-2.649-2.649C348.851,792.89,350.037,791.705,351.5,791.705z
			 M398.026,383.832h31.833c1.463,0,2.649,1.185,2.649,2.649c0,1.464-1.186,2.649-2.649,2.649h-31.833
			c-1.463,0-2.649-1.185-2.649-2.649C395.377,385.017,396.563,383.832,398.026,383.832z M415.166,791.705h31.833
			c1.463,0,2.649,1.185,2.649,2.649c0,1.464-1.186,2.649-2.649,2.649h-31.833c-1.463,0-2.648-1.185-2.648-2.649
			C412.517,792.89,413.703,791.705,415.166,791.705z M461.692,383.832h31.833c1.463,0,2.649,1.185,2.649,2.649
			c0,1.464-1.186,2.649-2.649,2.649h-31.833c-1.463,0-2.649-1.185-2.649-2.649C459.043,385.017,460.229,383.832,461.692,383.832z
			 M478.832,791.705h31.834c1.463,0,2.649,1.185,2.649,2.649c0,1.464-1.186,2.649-2.649,2.649h-31.834
			c-1.463,0-2.649-1.185-2.649-2.649C476.183,792.89,477.369,791.705,478.832,791.705z M525.358,383.832h31.833
			c1.463,0,2.649,1.185,2.649,2.649c0,1.464-1.186,2.649-2.649,2.649h-31.833c-1.463,0-2.649-1.185-2.649-2.649
			C522.709,385.017,523.895,383.832,525.358,383.832z M542.499,791.705h31.833c1.463,0,2.648,1.185,2.648,2.649
			c0,1.464-1.186,2.649-2.648,2.649h-31.833c-1.463,0-2.649-1.185-2.649-2.649C539.85,792.89,541.036,791.705,542.499,791.705z
			 M589.024,383.832h31.833c1.463,0,2.648,1.185,2.648,2.649c0,1.464-1.186,2.649-2.648,2.649h-31.833
			c-1.463,0-2.649-1.185-2.649-2.649C586.375,385.017,587.561,383.832,589.024,383.832z M606.165,791.705h31.833
			c1.463,0,2.649,1.185,2.649,2.649c0,1.464-1.186,2.649-2.649,2.649h-31.833c-1.463,0-2.649-1.185-2.649-2.649
			C603.516,792.89,604.702,791.705,606.165,791.705z M652.69,383.832h31.834c1.463,0,2.649,1.185,2.649,2.649
			c0,1.464-1.186,2.649-2.649,2.649H652.69c-1.463,0-2.649-1.185-2.649-2.649C650.041,385.017,651.227,383.832,652.69,383.832z
			 M669.831,791.705h31.833c1.463,0,2.649,1.185,2.649,2.649c0,1.464-1.186,2.649-2.649,2.649h-31.833
			c-1.463,0-2.649-1.185-2.649-2.649C667.183,792.89,668.369,791.705,669.831,791.705z M716.357,383.832h31.833
			c1.463,0,2.649,1.185,2.649,2.649c0,1.464-1.186,2.649-2.649,2.649h-31.833c-1.463,0-2.649-1.185-2.649-2.649
			C713.709,385.017,714.895,383.832,716.357,383.832z M733.497,791.705h31.833c1.463,0,2.649,1.185,2.649,2.649
			c0,1.464-1.186,2.649-2.649,2.649h-31.833c-1.463,0-2.649-1.185-2.649-2.649C730.849,792.89,732.035,791.705,733.497,791.705z
			 M777.399,386.375c0.303-1.43,1.708-2.346,3.14-2.043c3.699,0.784,7.183,2.486,10.075,4.93l16.66,14.071
			c1.116,0.942,1.261,2.607,0.316,3.732c-0.944,1.117-2.615,1.257-3.732,0.313l-16.66-14.071c-2.227-1.878-4.908-3.189-7.755-3.792
			c-1.245-0.264-2.1-1.363-2.1-2.589C777.342,386.745,777.361,386.561,777.399,386.375z M792.633,782.934l24.318-20.54
			c1.119-0.944,2.79-0.804,3.734,0.313c0.94,1.12,0.803,2.791-0.314,3.732l-24.32,20.54c-1.117,0.944-2.788,0.805-3.732-0.313
			c-0.419-0.497-0.625-1.104-0.625-1.707C791.693,784.204,792.012,783.456,792.633,782.934z M827.861,424.188
			c0.944-1.117,2.615-1.257,3.732-0.313l24.319,20.54c1.116,0.941,1.26,2.613,0.315,3.732c-0.944,1.117-2.615,1.257-3.732,0.313
			l-24.319-20.54c-0.621-0.523-0.94-1.27-0.94-2.025C827.236,425.293,827.442,424.685,827.861,424.188z M841.271,741.854
			l23.486-19.839c0.242-0.204,0.478-0.414,0.708-0.631c1.066-1.001,2.742-0.952,3.744,0.114c1.004,1.066,0.953,2.739-0.113,3.745
			c-0.299,0.279-0.603,0.551-0.918,0.817l-23.487,19.839c-1.119,0.944-2.79,0.804-3.734-0.313c-0.419-0.497-0.625-1.104-0.625-1.707
			C840.332,743.124,840.652,742.376,841.271,741.854z M873.349,467.798c1.456-0.14,2.748,0.931,2.885,2.387
			c0.067,0.714,0.101,1.433,0.101,2.155v29.924c0,1.464-1.186,2.649-2.649,2.649c-1.463,0-2.649-1.185-2.649-2.649V472.34
			c0-0.556-0.026-1.11-0.078-1.658c-0.008-0.085-0.012-0.168-0.012-0.251C870.948,469.081,871.976,467.925,873.349,467.798z
			 M873.686,531.449c1.463,0,2.649,1.185,2.649,2.649v31.833c0,1.464-1.186,2.649-2.649,2.649c-1.463,0-2.649-1.185-2.649-2.649
			v-31.833C871.038,532.633,872.223,531.449,873.686,531.449z M873.686,595.115c1.463,0,2.649,1.185,2.649,2.649v31.833
			c0,1.464-1.186,2.649-2.649,2.649c-1.463,0-2.649-1.185-2.649-2.649v-31.833C871.038,596.299,872.223,595.115,873.686,595.115z
			 M873.686,658.781c1.463,0,2.649,1.185,2.649,2.649v31.833c0,1.464-1.186,2.649-2.649,2.649c-1.463,0-2.649-1.185-2.649-2.649
			v-31.833C871.038,659.965,872.223,658.781,873.686,658.781z"/>
		<path fill="#7C7B7B" d="M818.094,566.52c0,0.577,0.127,1.164,0.393,1.72c0.952,1.976,3.325,2.809,5.302,1.857
			c0.634-0.303,1.451-0.711,2.433-1.203c31.623-15.794,53.931-19.922,66.304-12.271c7.88,4.87,11.875,14.979,11.875,30.041
			c0,14.358-4.084,24.084-12.14,28.91c-21.541,12.905-64.908-10.015-65.344-10.248c-1.933-1.034-4.342-0.308-5.378,1.627
			c-1.036,1.935-0.31,4.34,1.626,5.378c1.939,1.04,47.771,25.271,73.17,10.064c10.624-6.358,16.011-18.38,16.011-35.731
			c0-18-5.262-30.382-15.642-36.799c-22.414-13.859-61.266,5.546-74.033,11.922c-0.939,0.468-1.721,0.859-2.325,1.151
			C818.924,563.62,818.094,565.04,818.094,566.52z"/>
	</g>
</g>
</svg>
