<?xml version="1.0" standalone="no"?>
<svg version="1.1" id="downloadSvg" xmlns="http://www.w3.org/2000/svg" xmlns:xlink="http://www.w3.org/1999/xlink" x="0px" y="0px" viewBox="0 0 1200 1200" enable-background="new 0 0 1200 1200" xml:space="preserve" height="512" width="512">
<g>
	<path fill="none" d="M950.887,652.501l2.781,78.149c0.196,5.545,0.294,11.016,0.294,16.522c0-5.506-0.083-10.977-0.279-16.522&#10;&#9;&#9;L950.887,652.501z"/>
	<path fill="none" d="M951.367,747.278c0-0.027,0-0.055,0-0.082c0,0.121,1.313,0.239,1.313,0.36&#10;&#9;&#9;c9.09,12.147,47.182,39.436,76.279,60.179c0-0.024,0-0.055,0-0.08C999.862,786.773,961.066,759.277,951.367,747.278z"/>
	<path fill="#FFFFFF" d="M179.107,592.652c-18.056,66.484-11.221,170.004-6.997,215.083c27.738-19.436,61.314-44.617,72.925-57.706&#10;&#9;&#9;c-0.125-6.418-0.115-12.857,0.113-19.326l8.354-236.445C232.516,505.916,195.006,534.115,179.107,592.652z"/>
	<path fill="#FFFFFF" d="M1027.611,807.655c4.222-45.13,11.684-148.609-6.353-215.003c-16.481-60.686-55.938-88.836-76.373-99.673&#10;&#9;&#9;l5.839,159.522l1.581,78.149c0.195,5.545-0.938,11.016-0.938,16.522c0,0,0,0.016,0,0.023c0,0.027,0,0.055,0,0.082&#10;&#9;&#9;C961.066,759.277,997.814,786.773,1027.611,807.655z"/>
	<path fill="#405E32" d="M1046.716,585.583c-23.696-87.229-95.349-117.209-105.048-122.791v-0.013l-0.185-39.404&#10;&#9;&#9;c-6.962,12.723-15.069,24.344-25.16,34.61l9.971,273.664c3.043,86.212-28.123,169.063-88.036,231.127&#10;&#9;&#9;c-59.908,62.063-140.257,97.434-226.517,97.434h-24.785c-86.265,0-166.765-35.371-226.673-97.439&#10;&#9;&#9;c-59.911-62.063-91.229-144.314-88.182-230.525l9.801-277.715c-10.294-11.169-18.949-23.964-25.658-37.77l-1.664,47.049&#10;&#9;&#9;l-1.079,30.484l-8.354,236.426c-0.228,6.469-0.238,12.897-0.113,19.314v-0.003v-0.002c-11.611,13.089-45.187,38.269-72.925,57.705&#10;&#9;&#9;c-4.224-45.078-11.059-148.599,6.997-215.083c15.9-58.537,53.409-86.736,74.394-98.394l1.079-30.522&#10;&#9;&#9;c-18.157,7.633-78.952,38.826-101.505,121.847c-24.886,91.651-6.171,241.458-5.364,247.788l2.765,21.651l18.125-12.16&#10;&#9;&#9;c6.396-4.294,50.151-33.854,78.844-58.256v0.001v0.002c8.832,73.344,41.037,141.43,93.429,195.703&#10;&#9;&#9;c34.903,36.157,76.284,63.493,121.572,81.159c0.634-0.184,1.397-0.324,2.149-0.448c-0.48,0.124-0.952,0.264-1.586,0.448&#10;&#9;&#9;c-0.213,0.062,1.307,0.094,1.126,0.163c-5.087,1.93-7.418,6.811-7.418,12.575v62.305c0,7.449,2.249,13.485,9.699,13.485&#10;&#9;&#9;c7.45,0,9.699-6.037,9.699-13.485v-62.305c0-2.442,1.788-4.7,0.654-6.676c-2.276-3.964-4.788-6.653-9.586-6.768&#10;&#9;&#9;c0.163-0.006,0.319-0.042,0.469-0.042c5.007,0,9.301,2.759,11.628,6.81c6.013,1.985,12.077,3.798,18.208,5.45&#10;&#9;&#9;c0.645-6.863,7.57-12.26,14.597-12.26c-7.027,0-13.544,5.397-14.189,12.26c-0.012,0.125-0.956,0.242-0.964,0.368&#10;&#9;&#9;c-0.018,0.29-1.42,0.564-1.42,0.858v62.305c0,7.449,7.098,13.485,14.548,13.485c7.45,0,14.548-6.037,14.548-13.485v-57.253&#10;&#9;&#9;c9.699,1.043,9.699,1.934,19.398,2.679v54.574c0,7.449,2.249,13.485,9.699,13.485c7.45,0,9.699-6.037,9.699-13.485v-52.135&#10;&#9;&#9;c9.699,0.269,17.904,4.928,23.548,4.928h24.947c0,0,0-4.567,0-4.574v51.781c0,7.449,7.098,13.485,14.548,13.485&#10;&#9;&#9;c7.45,0,14.548-6.037,14.548-13.485v-53.052c0-0.498,0-1.14,9.699-1.931v54.984c0,7.449,7.099,13.485,14.548,13.485&#10;&#9;&#9;c7.45,0,14.548-6.037,14.548-13.485v-59.771c9.699-1.306,14.869-3.033,20.727-4.651c0.913-6.56,9.465-11.882,16.278-11.882&#10;&#9;&#9;c0.006,0,0.012,0,0.012,0c-6.8,0-14.443,5.324-15.356,11.88c-0.086,0.614-2.262,1.482-2.262,2.118v62.305&#10;&#9;&#9;c0,7.449,7.099,13.485,14.549,13.485c7.45,0,14.548-6.037,14.548-13.485v-62.305c0-3.535-0.378-6.725-2.602-9.13&#10;&#9;&#9;c-0.016-0.018,0.551-0.87,0.533-0.887c-0.088-0.095,0.586-0.182,0.491-0.276c48.704-17.457,93.562-45.557,130.692-84.019&#10;&#9;&#9;c52.757-54.652,85.401-123.095,93.969-197.022c28.608,24.714,74.386,55.592,80.938,59.988l18.176,12.16l2.179-21.651&#10;&#9;&#9;C1053.478,827.041,1071.606,677.234,1046.716,585.583z M952.68,747.555c0-0.121-1.313-0.239-1.313-0.36c0-0.008,0-0.016,0-0.016&#10;&#9;&#9;c0-5.514,1.2-10.985,1.004-16.53l-2.133-78.149l-5.353-159.522c20.435,10.838,60.404,38.988,76.885,99.673&#10;&#9;&#9;c18.037,66.394,7.189,169.873,7.189,215.003c0,0.024,0,0.055,0,0.08C999.862,786.991,961.77,759.702,952.68,747.555z" style="fill: rgb(35, 63, 81);"/>
	<path fill="#FFFFFF" d="M396.402,477.722c71.09,0,128.925-57.836,128.925-128.925c0-71.094-57.835-128.929-128.925-128.929&#10;&#9;&#9;c-71.093,0-128.929,57.835-128.929,128.929C267.473,419.886,325.309,477.722,396.402,477.722z M396.401,281.865&#10;&#9;&#9;c36.966,0,66.931,29.966,66.931,66.932s-29.966,66.933-66.931,66.933c-36.966,0-66.933-29.967-66.933-66.933&#10;&#9;&#9;S359.435,281.865,396.401,281.865z"/>
	<circle fill="#405E32" cx="396.401" cy="348.797" r="66.932" style="fill: rgb(35, 63, 81);"/>
	<path fill="#FFFFFF" d="M805.836,219.869c-71.088,0-128.924,57.835-128.924,128.929c0,71.089,57.836,128.925,128.924,128.925&#10;&#9;&#9;c71.094,0,128.93-57.836,128.93-128.925C934.765,277.704,876.929,219.869,805.836,219.869z M805.837,415.729&#10;&#9;&#9;c-36.966,0-66.932-29.967-66.932-66.933s29.966-66.932,66.932-66.932c36.965,0,66.932,29.966,66.932,66.932&#10;&#9;&#9;S842.801,415.729,805.837,415.729z"/>
	<circle fill="#405E32" cx="805.837" cy="348.797" r="66.932" style="fill: rgb(35, 63, 81);"/>
	<path fill="#FFFFFF" d="M549.181,525.491l46.874,96.181l50.36-95.027c-10.724-5.179-28.389-11.939-47.524-11.939&#10;&#9;&#9;C579.431,514.706,560.718,520.795,549.181,525.491z"/>
	<path fill="#405E32" d="M598.891,487.557c-38.63,0-72.941,18.776-74.381,19.572c-6.29,3.472-8.753,11.304-5.605,17.762&#10;&#9;&#9;l64.53,131.241c2.221,4.561,6.816,6.422,11.892,6.422c0.078,0,0.153,0,0.228,0c4.987,0,9.575-1.575,11.914-5.996l68.981-129.582&#10;&#9;&#9;c3.244-6.114,1.326-13.204-4.433-17.045C670.652,509.021,638.132,487.557,598.891,487.557z M596.055,621.672l-46.874-96.181&#10;&#9;&#9;c11.537-4.696,30.25-10.785,49.71-10.785c19.135,0,36.8,6.76,47.524,11.939L596.055,621.672z" style="fill: rgb(35, 63, 81);"/>
	<path fill="#405E32" d="M173.796,280.378l70.983,32.763c-2.699,11.473-4.276,23.372-4.276,35.656&#10;&#9;&#9;c0,24.327,5.761,47.279,15.741,67.817c6.709,13.805,15.364,26.449,25.658,37.619c28.508,30.933,69.218,50.459,114.5,50.459&#10;&#9;&#9;c85.962,0,155.896-69.934,155.896-155.896s-69.934-155.899-155.896-155.899c-16.6,0-32.576,2.663-47.593,7.492&#10;&#9;&#9;c57.499-75.296,148.193-123.42,250.539-123.42c101.762,0,192.025,47.559,249.573,122.117c-13.704-3.951-28.128-6.19-43.086-6.19&#10;&#9;&#9;c-85.961,0-155.895,69.938-155.895,155.899s69.934,155.896,155.895,155.896c43.464,0,82.788-17.919,111.091-46.707&#10;&#9;&#9;c10.09-10.265,18.802-21.887,25.763-34.61c12.13-22.167,19.046-47.576,19.046-74.578c0-12.34-1.593-24.29-4.315-35.811&#10;&#9;&#9;l70.649-32.609c6.764-3.121,9.715-11.132,6.593-17.893c-3.116-6.765-11.145-9.728-17.893-6.594l-67.786,31.288&#10;&#9;&#9;c-3.159-7.309-6.954-14.262-11.15-20.944l49.55-52.855c5.097-5.434,4.82-13.968-0.615-19.06&#10;&#9;&#9;c-5.447-5.101-13.967-4.824-19.059,0.615l-46.402,49.494c-7.136-7.887-15.04-15.03-23.636-21.327l29.273-70.116&#10;&#9;&#9;c2.871-6.875-0.377-14.772-7.247-17.642c-6.861-2.853-14.775,0.377-17.642,7.247l-22.158,53.071&#10;&#9;&#9;C818.146,107.237,715.668,50,599.348,50C484.27,50,382.741,106.022,320.79,192.841l-20.981-50.25&#10;&#9;&#9;c-2.866-6.875-10.763-10.097-17.642-7.247c-6.87,2.871-10.118,10.768-7.247,17.642l28.141,67.402&#10;&#9;&#9;c-1.242,2.152-2.407,4.354-3.603,6.537c-6.733,5.366-12.95,11.317-18.711,17.706l-46.591-49.697&#10;&#9;&#9;c-5.087-5.43-13.616-5.707-19.059-0.615c-5.435,5.093-5.712,13.626-0.615,19.06l49.776,53.096&#10;&#9;&#9;c-4.161,6.654-7.936,13.57-11.07,20.843l-68.091-31.429c-6.743-3.134-14.773-0.171-17.894,6.594&#10;&#9;&#9;C164.08,269.245,167.031,277.257,173.796,280.378z M934.765,348.797c0,71.089-57.836,128.925-128.93,128.925&#10;&#9;&#9;c-71.088,0-128.924-57.836-128.924-128.925c0-71.094,57.836-128.929,128.924-128.929&#10;&#9;&#9;C876.929,219.869,934.765,277.704,934.765,348.797z M396.402,219.869c71.09,0,128.925,57.835,128.925,128.929&#10;&#9;&#9;c0,71.089-57.835,128.925-128.925,128.925c-71.093,0-128.929-57.836-128.929-128.925&#10;&#9;&#9;C267.473,277.704,325.309,219.869,396.402,219.869z" style="fill: rgb(35, 63, 81);"/>
</g>
</svg>